<svg width="344" height="39" viewBox="0 0 344 39" fill="none" xmlns="http://www.w3.org/2000/svg">
<path d="M0.984 38V4.4H8.76V31.664H25.608V38H0.984ZM40.227 38.384C38.083 38.384 36.163 37.968 34.467 37.136C32.803 36.304 31.507 35.04 30.579 33.344C29.651 31.616 29.187 29.424 29.187 26.768V12.176H36.675V25.664C36.675 27.808 37.123 29.392 38.019 30.416C38.947 31.408 40.243 31.904 41.907 31.904C43.059 31.904 44.083 31.664 44.979 31.184C45.875 30.672 46.579 29.904 47.091 28.88C47.603 27.824 47.859 26.512 47.859 24.944V12.176H55.347V38H48.243V30.896L49.539 32.96C48.675 34.752 47.395 36.112 45.699 37.04C44.035 37.936 42.211 38.384 40.227 38.384ZM74.7641 38.384C71.9801 38.384 69.5001 37.824 67.3241 36.704C65.1481 35.552 63.4361 33.968 62.1881 31.952C60.9721 29.936 60.3641 27.648 60.3641 25.088C60.3641 22.496 60.9721 20.208 62.1881 18.224C63.4361 16.208 65.1481 14.64 67.3241 13.52C69.5001 12.368 71.9801 11.792 74.7641 11.792C77.4841 11.792 79.8521 12.368 81.8681 13.52C83.8841 14.64 85.3721 16.256 86.3321 18.368L80.5241 21.488C79.8521 20.272 79.0041 19.376 77.9801 18.8C76.9881 18.224 75.9001 17.936 74.7161 17.936C73.4361 17.936 72.2841 18.224 71.2601 18.8C70.2361 19.376 69.4201 20.192 68.8121 21.248C68.2361 22.304 67.9481 23.584 67.9481 25.088C67.9481 26.592 68.2361 27.872 68.8121 28.928C69.4201 29.984 70.2361 30.8 71.2601 31.376C72.2841 31.952 73.4361 32.24 74.7161 32.24C75.9001 32.24 76.9881 31.968 77.9801 31.424C79.0041 30.848 79.8521 29.936 80.5241 28.688L86.3321 31.856C85.3721 33.936 83.8841 35.552 81.8681 36.704C79.8521 37.824 77.4841 38.384 74.7641 38.384ZM106.484 38V32.96L106.004 31.856V22.832C106.004 21.232 105.508 19.984 104.516 19.088C103.556 18.192 102.068 17.744 100.052 17.744C98.6755 17.744 97.3155 17.968 95.9715 18.416C94.6595 18.832 93.5395 19.408 92.6115 20.144L89.9235 14.912C91.3315 13.92 93.0275 13.152 95.0115 12.608C96.9955 12.064 99.0115 11.792 101.06 11.792C104.996 11.792 108.052 12.72 110.228 14.576C112.404 16.432 113.492 19.328 113.492 23.264V38H106.484ZM98.6115 38.384C96.5955 38.384 94.8675 38.048 93.4275 37.376C91.9875 36.672 90.8835 35.728 90.1155 34.544C89.3475 33.36 88.9635 32.032 88.9635 30.56C88.9635 29.024 89.3315 27.68 90.0675 26.528C90.8355 25.376 92.0355 24.48 93.6675 23.84C95.2995 23.168 97.4275 22.832 100.052 22.832H106.916V27.2H100.868C99.1075 27.2 97.8915 27.488 97.2195 28.064C96.5795 28.64 96.2595 29.36 96.2595 30.224C96.2595 31.184 96.6275 31.952 97.3635 32.528C98.1315 33.072 99.1715 33.344 100.484 33.344C101.732 33.344 102.852 33.056 103.844 32.48C104.836 31.872 105.556 30.992 106.004 29.84L107.156 33.296C106.612 34.96 105.62 36.224 104.18 37.088C102.74 37.952 100.884 38.384 98.6115 38.384ZM128.957 38.384C126.749 38.384 124.621 38.128 122.573 37.616C120.557 37.072 118.957 36.4 117.773 35.6L120.269 30.224C121.453 30.96 122.845 31.568 124.445 32.048C126.077 32.496 127.677 32.72 129.245 32.72C130.973 32.72 132.189 32.512 132.893 32.096C133.629 31.68 133.997 31.104 133.997 30.368C133.997 29.76 133.709 29.312 133.133 29.024C132.589 28.704 131.853 28.464 130.924 28.304C129.997 28.144 128.973 27.984 127.853 27.824C126.765 27.664 125.661 27.456 124.541 27.2C123.421 26.912 122.397 26.496 121.469 25.952C120.541 25.408 119.789 24.672 119.213 23.744C118.669 22.816 118.396 21.616 118.396 20.144C118.396 18.512 118.861 17.072 119.789 15.824C120.749 14.576 122.125 13.6 123.917 12.896C125.709 12.16 127.853 11.792 130.349 11.792C132.109 11.792 133.901 11.984 135.725 12.368C137.549 12.752 139.069 13.312 140.285 14.048L137.789 19.376C136.541 18.64 135.277 18.144 133.997 17.888C132.749 17.6 131.533 17.456 130.349 17.456C128.685 17.456 127.469 17.68 126.701 18.128C125.933 18.576 125.549 19.152 125.549 19.856C125.549 20.496 125.821 20.976 126.365 21.296C126.941 21.616 127.693 21.872 128.621 22.064C129.549 22.256 130.557 22.432 131.645 22.592C132.765 22.72 133.885 22.928 135.005 23.216C136.125 23.504 137.133 23.92 138.029 24.464C138.957 24.976 139.709 25.696 140.285 26.624C140.861 27.52 141.149 28.704 141.149 30.176C141.149 31.776 140.669 33.2 139.709 34.448C138.749 35.664 137.357 36.624 135.533 37.328C133.741 38.032 131.549 38.384 128.957 38.384ZM159.89 38V4.4H166.322L180.626 28.112H177.218L191.282 4.4H197.666L197.762 38H190.466L190.418 15.584H191.762L180.53 34.448H177.026L165.554 15.584H167.186V38H159.89ZM217.494 38.384C214.742 38.384 212.294 37.808 210.15 36.656C208.038 35.504 206.358 33.936 205.11 31.952C203.894 29.936 203.286 27.648 203.286 25.088C203.286 22.496 203.894 20.208 205.11 18.224C206.358 16.208 208.038 14.64 210.15 13.52C212.294 12.368 214.742 11.792 217.494 11.792C220.214 11.792 222.646 12.368 224.79 13.52C226.934 14.64 228.614 16.192 229.83 18.176C231.046 20.16 231.654 22.464 231.654 25.088C231.654 27.648 231.046 29.936 229.83 31.952C228.614 33.936 226.934 35.504 224.79 36.656C222.646 37.808 220.214 38.384 217.494 38.384ZM217.494 32.24C218.742 32.24 219.862 31.952 220.854 31.376C221.846 30.8 222.63 29.984 223.206 28.928C223.782 27.84 224.07 26.56 224.07 25.088C224.07 23.584 223.782 22.304 223.206 21.248C222.63 20.192 221.846 19.376 220.854 18.8C219.862 18.224 218.742 17.936 217.494 17.936C216.246 17.936 215.126 18.224 214.134 18.8C213.142 19.376 212.342 20.192 211.734 21.248C211.158 22.304 210.87 23.584 210.87 25.088C210.87 26.56 211.158 27.84 211.734 28.928C212.342 29.984 213.142 30.8 214.134 31.376C215.126 31.952 216.246 32.24 217.494 32.24ZM236.659 38V12.176H243.811V19.472L242.803 17.36C243.571 15.536 244.803 14.16 246.499 13.232C248.195 12.272 250.259 11.792 252.691 11.792V18.704C252.371 18.672 252.083 18.656 251.827 18.656C251.571 18.624 251.299 18.608 251.011 18.608C248.963 18.608 247.299 19.2 246.019 20.384C244.771 21.536 244.147 23.344 244.147 25.808V38H236.659ZM269.772 38.384C266.828 38.384 264.236 37.808 261.996 36.656C259.788 35.504 258.076 33.936 256.86 31.952C255.644 29.936 255.036 27.648 255.036 25.088C255.036 22.496 255.628 20.208 256.812 18.224C258.028 16.208 259.676 14.64 261.756 13.52C263.836 12.368 266.188 11.792 268.812 11.792C271.34 11.792 273.612 12.336 275.628 13.424C277.676 14.48 279.292 16.016 280.476 18.032C281.66 20.016 282.252 22.4 282.252 25.184C282.252 25.472 282.236 25.808 282.204 26.192C282.172 26.544 282.14 26.88 282.108 27.2H261.132V22.832H278.172L275.292 24.128C275.292 22.784 275.02 21.616 274.476 20.624C273.932 19.632 273.18 18.864 272.22 18.32C271.26 17.744 270.14 17.456 268.86 17.456C267.58 17.456 266.444 17.744 265.452 18.32C264.492 18.864 263.74 19.648 263.196 20.672C262.652 21.664 262.38 22.848 262.38 24.224V25.376C262.38 26.784 262.684 28.032 263.292 29.12C263.932 30.176 264.812 30.992 265.932 31.568C267.084 32.112 268.428 32.384 269.964 32.384C271.34 32.384 272.54 32.176 273.564 31.76C274.62 31.344 275.58 30.72 276.444 29.888L280.428 34.208C279.244 35.552 277.756 36.592 275.964 37.328C274.172 38.032 272.108 38.384 269.772 38.384ZM287.237 38V12.176H294.725V38H287.237ZM290.981 8.576C289.605 8.576 288.485 8.176 287.621 7.376C286.757 6.576 286.325 5.584 286.325 4.4C286.325 3.216 286.757 2.224 287.621 1.424C288.485 0.623998 289.605 0.223997 290.981 0.223997C292.357 0.223997 293.477 0.607998 294.341 1.376C295.205 2.112 295.637 3.072 295.637 4.256C295.637 5.504 295.205 6.544 294.341 7.376C293.509 8.176 292.389 8.576 290.981 8.576ZM301.675 38V12.176H308.827V19.472L307.819 17.36C308.587 15.536 309.819 14.16 311.515 13.232C313.211 12.272 315.275 11.792 317.707 11.792V18.704C317.387 18.672 317.099 18.656 316.843 18.656C316.587 18.624 316.315 18.608 316.027 18.608C313.979 18.608 312.315 19.2 311.035 20.384C309.787 21.536 309.163 23.344 309.163 25.808V38H301.675ZM336.312 38V32.96L335.832 31.856V22.832C335.832 21.232 335.336 19.984 334.344 19.088C333.384 18.192 331.896 17.744 329.88 17.744C328.504 17.744 327.144 17.968 325.8 18.416C324.488 18.832 323.368 19.408 322.44 20.144L319.752 14.912C321.16 13.92 322.856 13.152 324.84 12.608C326.824 12.064 328.84 11.792 330.888 11.792C334.824 11.792 337.88 12.72 340.056 14.576C342.232 16.432 343.32 19.328 343.32 23.264V38H336.312ZM328.44 38.384C326.424 38.384 324.696 38.048 323.256 37.376C321.816 36.672 320.712 35.728 319.944 34.544C319.176 33.36 318.792 32.032 318.792 30.56C318.792 29.024 319.16 27.68 319.896 26.528C320.664 25.376 321.864 24.48 323.496 23.84C325.128 23.168 327.256 22.832 329.88 22.832H336.744V27.2H330.696C328.936 27.2 327.72 27.488 327.048 28.064C326.408 28.64 326.088 29.36 326.088 30.224C326.088 31.184 326.456 31.952 327.192 32.528C327.96 33.072 329 33.344 330.312 33.344C331.56 33.344 332.68 33.056 333.672 32.48C334.664 31.872 335.384 30.992 335.832 29.84L336.984 33.296C336.44 34.96 335.448 36.224 334.008 37.088C332.568 37.952 330.712 38.384 328.44 38.384Z" fill="#121212"/>
</svg>
